<?xml version="1.0" encoding="UTF-8" standalone="no"?>
<!-- Created with Inkscape (http://www.inkscape.org/) -->

<svg
   width="57.345226mm"
   height="4.5620742mm"
   viewBox="0 0 57.345229 4.5620742"
   version="1.1"
   id="svg1"
   xml:space="preserve"
   xmlns="http://www.w3.org/2000/svg"
   xmlns:svg="http://www.w3.org/2000/svg"><defs
     id="defs1" /><g
     id="layer1"
     transform="translate(-229.07573,-50.024124)"><g
       id="g14"
       transform="translate(186.59796,4.922971)"><g
         id="g11"
         style="fill:#ffffff;fill-opacity:1;stroke:none"
         transform="translate(0,0.6139484)"><path
           d="m 82.801147,48.305062 c -6.1e-5,-0.0016 -5.16e-4,-0.003 -5.16e-4,-0.0047 v -0.195337 h -0.150895 c -0.04026,0 -0.07235,0.04427 -0.07235,0.09974 0,0.05545 0.03208,0.100252 0.07235,0.100252 z"
           style="fill:#ffffff;fill-opacity:1;stroke:none;stroke-width:0.0322546"
           id="path10" /><path
           d="m 83.206291,48.105074 v 0.195337 c 0,0.0016 -4.56e-4,0.0031 -5.17e-4,0.0047 h 0.141077 c 0.04026,0 0.07235,-0.0448 0.07235,-0.100252 0,-0.05545 -0.03208,-0.09974 -0.07235,-0.09974 z"
           style="fill:#ffffff;fill-opacity:1;stroke:none;stroke-width:0.0322546"
           id="path11" /></g><g
         id="g13"
         transform="translate(0,0.5883439)"
         style="fill:#ffffff;fill-opacity:1;stroke:none"><path
           d="m 82.800631,47.975883 v -0.199987 h -0.289388 c -0.04026,0 -0.07235,0.04479 -0.07235,0.100252 0,0.05545 0.03208,0.09974 0.07235,0.09974 z"
           style="fill:#ffffff;fill-opacity:1;stroke:none;stroke-width:0.0322546"
           id="path12" /><path
           d="m 83.206291,47.775896 v 0.199987 h 0.279052 c 0.04026,0 0.07286,-0.04427 0.07286,-0.09974 0,-0.05545 -0.03259,-0.100252 -0.07286,-0.100252 z"
           style="fill:#ffffff;fill-opacity:1;stroke:none;stroke-width:0.0322546"
           id="path13" /></g><path
         d="m 82.998035,45.101155 a 1.1336783,1.1336783 0 0 0 -1.133264,1.133781 1.1336783,1.1336783 0 0 0 0.192753,0.630453 l 0.33848,0.626318 v 0.505912 c 0,0.117175 0.09418,0.211874 0.211357,0.211874 h 0.19327 v -1.032495 c 0,-0.06702 0.0539,-0.120923 0.120923,-0.120923 h 0.163814 c 0.06702,0 0.120923,0.0539 0.120923,0.120923 v 1.032495 h 0.182417 c 0.117174,0 0.211874,-0.09469 0.211874,-0.211874 v -0.505912 l 0.33848,-0.626318 a 1.1336783,1.1336783 0 0 0 0.192754,-0.630453 1.1336783,1.1336783 0 0 0 -1.133781,-1.133781 z m 0.0083,0.706934 a 0.42557696,0.42557696 0 0 1 0.425297,0.425814 0.42557696,0.42557696 0 0 1 -0.425297,0.425297 0.42557696,0.42557696 0 0 1 -0.425814,-0.425297 0.42557696,0.42557696 0 0 1 0.425814,-0.425814 z"
         style="fill:#ffff00;fill-opacity:1;stroke:none;stroke-width:0.0274837;stroke-opacity:1"
         id="path14" /></g><g
       id="text17"
       style="font-size:16px;font-family:Montserrat;-inkscape-font-specification:Montserrat;letter-spacing:0px;white-space:pre"
       transform="matrix(0.26458333,0,0,0.26458333,187.55881,17.042438)"
       aria-label="Longevity Biotech insights"><path
         style="font-weight:bold;-inkscape-font-specification:'Montserrat Medium';fill:#ffffff"
         d="m 156.91437,127.49768 h 1.6 v 9.808 h 6.064 v 1.392 h -7.664 z m 12.8,11.296 q -1.264,0 -2.272,-0.56 -1.008,-0.56 -1.584,-1.536 -0.56,-0.992 -0.56,-2.24 0,-1.248 0.56,-2.224 0.576,-0.992 1.584,-1.536 1.008,-0.56 2.272,-0.56 1.264,0 2.256,0.56 1.008,0.544 1.568,1.536 0.576,0.976 0.576,2.224 0,1.248 -0.576,2.24 -0.56,0.976 -1.568,1.536 -0.992,0.56 -2.256,0.56 z m 0,-1.344 q 0.816,0 1.456,-0.368 0.656,-0.384 1.024,-1.056 0.368,-0.688 0.368,-1.568 0,-0.88 -0.368,-1.552 -0.368,-0.688 -1.024,-1.056 -0.64,-0.368 -1.456,-0.368 -0.816,0 -1.472,0.368 -0.64,0.368 -1.024,1.056 -0.368,0.672 -0.368,1.552 0,0.88 0.368,1.568 0.384,0.672 1.024,1.056 0.656,0.368 1.472,0.368 z m 11.05601,-7.312 q 1.616,0 2.56,0.944 0.96,0.928 0.96,2.736 v 4.88 h -1.536 v -4.704 q 0,-1.232 -0.592,-1.856 -0.592,-0.624 -1.696,-0.624 -1.248,0 -1.968,0.736 -0.72,0.72 -0.72,2.08 v 4.368 h -1.536 v -8.48 h 1.472 v 1.28 q 0.464,-0.656 1.248,-1.008 0.8,-0.352 1.808,-0.352 z m 14.528,0.08 v 7.328 q 0,2.224 -1.104,3.28 -1.104,1.072 -3.296,1.072 -1.2,0 -2.288,-0.336 -1.088,-0.32 -1.76,-0.928 l 0.736,-1.184 q 0.592,0.512 1.456,0.8 0.88,0.304 1.808,0.304 1.488,0 2.192,-0.704 0.72,-0.704 0.72,-2.144 v -0.672 q -0.544,0.656 -1.344,0.992 -0.784,0.32 -1.712,0.32 -1.216,0 -2.208,-0.512 -0.976,-0.528 -1.536,-1.456 -0.56,-0.944 -0.56,-2.144 0,-1.2 0.56,-2.128 0.56,-0.944 1.536,-1.456 0.992,-0.512 2.208,-0.512 0.96,0 1.776,0.352 0.832,0.352 1.36,1.04 v -1.312 z m -4.416,6.784 q 0.832,0 1.488,-0.352 0.672,-0.352 1.04,-0.976 0.384,-0.64 0.384,-1.44 0,-1.232 -0.816,-1.984 -0.816,-0.768 -2.096,-0.768 -1.296,0 -2.112,0.768 -0.816,0.752 -0.816,1.984 0,0.8 0.368,1.44 0.384,0.624 1.04,0.976 0.672,0.352 1.52,0.352 z m 15.00801,-2.496 q 0,0.176 -0.032,0.464 h -6.88 q 0.144,1.12 0.976,1.808 0.848,0.672 2.096,0.672 1.52,0 2.448,-1.024 l 0.848,0.992 q -0.576,0.672 -1.44,1.024 -0.848,0.352 -1.904,0.352 -1.344,0 -2.384,-0.544 -1.04,-0.56 -1.616,-1.552 -0.56,-0.992 -0.56,-2.24 0,-1.232 0.544,-2.224 0.56,-0.992 1.52,-1.536 0.976,-0.56 2.192,-0.56 1.216,0 2.16,0.56 0.96,0.544 1.488,1.536 0.544,0.992 0.544,2.272 z m -4.192,-3.072 q -1.104,0 -1.856,0.672 -0.736,0.672 -0.864,1.76 h 5.44 q -0.128,-1.072 -0.88,-1.744 -0.736,-0.688 -1.84,-0.688 z m 13.66398,-1.216 -3.712,8.48 h -1.568 l -3.712,-8.48 h 1.6 l 2.912,6.8 2.976,-6.8 z m 1.44,0 h 1.536 v 8.48 h -1.536 z m 0.768,-1.632 q -0.448,0 -0.752,-0.288 -0.288,-0.288 -0.288,-0.704 0,-0.416 0.288,-0.704 0.304,-0.304 0.752,-0.304 0.448,0 0.736,0.288 0.304,0.272 0.304,0.688 0,0.432 -0.304,0.736 -0.288,0.288 -0.736,0.288 z m 8.46399,9.616 q -0.336,0.288 -0.832,0.448 -0.496,0.144 -1.024,0.144 -1.28,0 -1.984,-0.688 -0.704,-0.688 -0.704,-1.968 v -4.656 h -1.44 v -1.264 h 1.44 v -1.856 h 1.536 v 1.856 h 2.432 v 1.264 h -2.432 v 4.592 q 0,0.688 0.336,1.056 0.352,0.368 0.992,0.368 0.704,0 1.2,-0.4 z m 9.19999,-7.984 -4.112,9.328 q -0.544,1.296 -1.28,1.824 -0.72,0.528 -1.744,0.528 -0.624,0 -1.216,-0.208 -0.576,-0.192 -0.96,-0.576 l 0.656,-1.152 q 0.656,0.624 1.52,0.624 0.56,0 0.928,-0.304 0.384,-0.288 0.688,-1.008 l 0.272,-0.592 -3.744,-8.464 h 1.6 l 2.96,6.784 2.928,-6.784 z m 13.50399,2.672 q 0.976,0.272 1.536,0.992 0.56,0.704 0.56,1.792 0,1.456 -1.104,2.24 -1.088,0.784 -3.184,0.784 h -5.344 v -11.2 h 5.024 q 1.92,0 2.96,0.768 1.056,0.768 1.056,2.128 0,0.88 -0.416,1.52 -0.4,0.64 -1.088,0.976 z m -5.936,-4.096 v 3.584 h 3.28 q 1.232,0 1.888,-0.448 0.672,-0.464 0.672,-1.344 0,-0.88 -0.672,-1.328 -0.656,-0.464 -1.888,-0.464 z m 3.68,8.608 q 1.36,0 2.048,-0.448 0.688,-0.448 0.688,-1.408 0,-1.872 -2.736,-1.872 h -3.68 v 3.728 z m 6.608,-7.184 h 1.536 v 8.48 h -1.536 z m 0.768,-1.632 q -0.448,0 -0.752,-0.288 -0.288,-0.288 -0.288,-0.704 0,-0.416 0.288,-0.704 0.304,-0.304 0.752,-0.304 0.448,0 0.736,0.288 0.304,0.272 0.304,0.688 0,0.432 -0.304,0.736 -0.288,0.288 -0.736,0.288 z m 7.32799,10.208 q -1.264,0 -2.272,-0.56 -1.008,-0.56 -1.584,-1.536 -0.56,-0.992 -0.56,-2.24 0,-1.248 0.56,-2.224 0.576,-0.992 1.584,-1.536 1.008,-0.56 2.272,-0.56 1.264,0 2.256,0.56 1.008,0.544 1.568,1.536 0.576,0.976 0.576,2.224 0,1.248 -0.576,2.24 -0.56,0.976 -1.568,1.536 -0.992,0.56 -2.256,0.56 z m 0,-1.344 q 0.816,0 1.456,-0.368 0.656,-0.384 1.024,-1.056 0.368,-0.688 0.368,-1.568 0,-0.88 -0.368,-1.552 -0.368,-0.688 -1.024,-1.056 -0.64,-0.368 -1.456,-0.368 -0.816,0 -1.472,0.368 -0.64,0.368 -1.024,1.056 -0.368,0.672 -0.368,1.552 0,0.88 0.368,1.568 0.384,0.672 1.024,1.056 0.656,0.368 1.472,0.368 z m 11.296,0.752 q -0.336,0.288 -0.832,0.448 -0.496,0.144 -1.024,0.144 -1.28,0 -1.984,-0.688 -0.704,-0.688 -0.704,-1.968 v -4.656 h -1.44 v -1.264 h 1.44 v -1.856 h 1.536 v 1.856 h 2.432 v 1.264 h -2.432 v 4.592 q 0,0.688 0.336,1.056 0.352,0.368 0.992,0.368 0.704,0 1.2,-0.4 z m 9.232,-3.696 q 0,0.176 -0.032,0.464 h -6.88 q 0.144,1.12 0.976,1.808 0.848,0.672 2.096,0.672 1.52,0 2.448,-1.024 l 0.848,0.992 q -0.576,0.672 -1.44,1.024 -0.848,0.352 -1.904,0.352 -1.344,0 -2.384,-0.544 -1.04,-0.56 -1.616,-1.552 -0.56,-0.992 -0.56,-2.24 0,-1.232 0.544,-2.224 0.56,-0.992 1.52,-1.536 0.976,-0.56 2.192,-0.56 1.216,0 2.16,0.56 0.96,0.544 1.488,1.536 0.544,0.992 0.544,2.272 z m -4.192,-3.072 q -1.104,0 -1.856,0.672 -0.736,0.672 -0.864,1.76 h 5.44 q -0.128,-1.072 -0.88,-1.744 -0.736,-0.688 -1.84,-0.688 z m 10.01599,7.36 q -1.296,0 -2.32,-0.56 -1.008,-0.56 -1.584,-1.536 -0.576,-0.992 -0.576,-2.24 0,-1.248 0.576,-2.224 0.576,-0.992 1.584,-1.536 1.024,-0.56 2.32,-0.56 1.152,0 2.048,0.464 0.912,0.464 1.408,1.344 l -1.168,0.752 q -0.4,-0.608 -0.992,-0.912 -0.592,-0.304 -1.312,-0.304 -0.832,0 -1.504,0.368 -0.656,0.368 -1.04,1.056 -0.368,0.672 -0.368,1.552 0,0.896 0.368,1.584 0.384,0.672 1.04,1.04 0.672,0.368 1.504,0.368 0.72,0 1.312,-0.304 0.592,-0.304 0.992,-0.912 l 1.168,0.736 q -0.496,0.88 -1.408,1.36 -0.896,0.464 -2.048,0.464 z m 9.85599,-8.656 q 1.616,0 2.56,0.944 0.96,0.928 0.96,2.736 v 4.88 h -1.536 v -4.704 q 0,-1.232 -0.592,-1.856 -0.592,-0.624 -1.696,-0.624 -1.248,0 -1.968,0.736 -0.72,0.72 -0.72,2.08 v 4.368 h -1.536 v -11.872 h 1.536 v 4.592 q 0.48,-0.608 1.248,-0.944 0.784,-0.336 1.744,-0.336 z"
         id="path17" /><path
         style="letter-spacing:2px;fill:#ffffff;fill-opacity:0"
         d="m 309.44429,130.28168 h 1.136 v 8.416 h -1.136 z m 0.576,-1.84 q -0.352,0 -0.592,-0.24 -0.24,-0.24 -0.24,-0.576 0,-0.32 0.24,-0.56 0.24,-0.24 0.592,-0.24 0.352,0 0.592,0.24 0.24,0.224 0.24,0.544 0,0.352 -0.24,0.592 -0.24,0.24 -0.592,0.24 z"
         id="path18" /><path
         style="font-weight:bold;fill:#ffffff"
         d="m 320.14828,130.13768 q 1.616,0 2.56,0.944 0.96,0.928 0.96,2.736 v 4.88 h -1.536 v -4.704 q 0,-1.232 -0.592,-1.856 -0.592,-0.624 -1.696,-0.624 -1.248,0 -1.968,0.736 -0.72,0.72 -0.72,2.08 v 4.368 h -1.536 v -8.48 h 1.472 v 1.28 q 0.464,-0.656 1.248,-1.008 0.8,-0.352 1.808,-0.352 z m 8.79999,8.656 q -1.04,0 -2,-0.272 -0.96,-0.288 -1.504,-0.72 l 0.64,-1.216 q 0.56,0.4 1.36,0.64 0.8,0.24 1.616,0.24 2.016,0 2.016,-1.152 0,-0.384 -0.272,-0.608 -0.272,-0.224 -0.688,-0.32 -0.4,-0.112 -1.152,-0.24 -1.024,-0.16 -1.68,-0.368 -0.64,-0.208 -1.104,-0.704 -0.464,-0.496 -0.464,-1.392 0,-1.152 0.96,-1.84 0.96,-0.704 2.576,-0.704 0.848,0 1.696,0.208 0.848,0.208 1.392,0.56 l -0.656,1.216 q -1.04,-0.672 -2.448,-0.672 -0.976,0 -1.488,0.32 -0.512,0.32 -0.512,0.848 0,0.416 0.288,0.656 0.288,0.24 0.704,0.352 0.432,0.112 1.2,0.256 1.024,0.176 1.648,0.384 0.64,0.192 1.088,0.672 0.448,0.48 0.448,1.344 0,1.152 -0.992,1.84 -0.976,0.672 -2.672,0.672 z m 5.58399,-8.576 h 1.536 v 8.48 h -1.536 z m 0.768,-1.632 q -0.448,0 -0.752,-0.288 -0.288,-0.288 -0.288,-0.704 0,-0.416 0.288,-0.704 0.304,-0.304 0.752,-0.304 0.448,0 0.736,0.288 0.304,0.272 0.304,0.688 0,0.432 -0.304,0.736 -0.288,0.288 -0.736,0.288 z m 11.80799,1.632 v 7.328 q 0,2.224 -1.104,3.28 -1.104,1.072 -3.296,1.072 -1.2,0 -2.288,-0.336 -1.088,-0.32 -1.76,-0.928 l 0.736,-1.184 q 0.592,0.512 1.456,0.8 0.88,0.304 1.808,0.304 1.488,0 2.192,-0.704 0.72,-0.704 0.72,-2.144 v -0.672 q -0.544,0.656 -1.344,0.992 -0.784,0.32 -1.712,0.32 -1.216,0 -2.208,-0.512 -0.976,-0.528 -1.536,-1.456 -0.56,-0.944 -0.56,-2.144 0,-1.2 0.56,-2.128 0.56,-0.944 1.536,-1.456 0.992,-0.512 2.208,-0.512 0.96,0 1.776,0.352 0.832,0.352 1.36,1.04 v -1.312 z m -4.416,6.784 q 0.832,0 1.488,-0.352 0.672,-0.352 1.04,-0.976 0.384,-0.64 0.384,-1.44 0,-1.232 -0.816,-1.984 -0.816,-0.768 -2.096,-0.768 -1.296,0 -2.112,0.768 -0.816,0.752 -0.816,1.984 0,0.8 0.368,1.44 0.384,0.624 1.04,0.976 0.672,0.352 1.52,0.352 z m 11.87201,-6.864 q 1.616,0 2.56,0.944 0.96,0.928 0.96,2.736 v 4.88 h -1.536 v -4.704 q 0,-1.232 -0.592,-1.856 -0.592,-0.624 -1.696,-0.624 -1.248,0 -1.968,0.736 -0.72,0.72 -0.72,2.08 v 4.368 h -1.536 v -11.872 h 1.536 v 4.592 q 0.48,-0.608 1.248,-0.944 0.784,-0.336 1.744,-0.336 z m 11.136,8.064 q -0.336,0.288 -0.832,0.448 -0.496,0.144 -1.024,0.144 -1.28,0 -1.984,-0.688 -0.704,-0.688 -0.704,-1.968 v -4.656 h -1.44 v -1.264 h 1.44 v -1.856 h 1.536 v 1.856 h 2.432 v 1.264 h -2.432 v 4.592 q 0,0.688 0.336,1.056 0.352,0.368 0.992,0.368 0.704,0 1.2,-0.4 z m 4.28799,0.592 q -1.04,0 -2,-0.272 -0.96,-0.288 -1.504,-0.72 l 0.64,-1.216 q 0.56,0.4 1.36,0.64 0.8,0.24 1.616,0.24 2.016,0 2.016,-1.152 0,-0.384 -0.272,-0.608 -0.272,-0.224 -0.688,-0.32 -0.4,-0.112 -1.152,-0.24 -1.024,-0.16 -1.68,-0.368 -0.64,-0.208 -1.104,-0.704 -0.464,-0.496 -0.464,-1.392 0,-1.152 0.96,-1.84 0.96,-0.704 2.576,-0.704 0.848,0 1.696,0.208 0.848,0.208 1.392,0.56 l -0.656,1.216 q -1.04,-0.672 -2.448,-0.672 -0.976,0 -1.488,0.32 -0.512,0.32 -0.512,0.848 0,0.416 0.288,0.656 0.288,0.24 0.704,0.352 0.432,0.112 1.2,0.256 1.024,0.176 1.648,0.384 0.64,0.192 1.088,0.672 0.448,0.48 0.448,1.344 0,1.152 -0.992,1.84 -0.976,0.672 -2.672,0.672 z"
         id="path19" /></g></g></svg>
