<?xml version="1.0" encoding="UTF-8" standalone="no"?>
<!-- Created with Inkscape (http://www.inkscape.org/) -->

<svg
   width="19.049999mm"
   height="19.050001mm"
   viewBox="0 0 19.05 19.050001"
   version="1.1"
   id="svg1"
   xml:space="preserve"
   xmlns="http://www.w3.org/2000/svg"
   xmlns:svg="http://www.w3.org/2000/svg"><defs
     id="defs1" /><g
     id="layer1"
     transform="translate(-228.22632,-60.688242)"><circle
       style="fill:#000000;fill-opacity:1;stroke:none;stroke-width:41.7391;stroke-opacity:1"
       id="path20"
       cx="237.75133"
       cy="70.213242"
       r="9.5249996" /><g
       id="g31"
       transform="matrix(3.7422363,0,0,3.7422363,-72.847923,-105.70967)"
       style="fill:#ffffff;fill-opacity:1;stroke:none;stroke-opacity:1"><g
         id="g28"
         style="fill:#ffffff;fill-opacity:1;stroke:none;stroke-opacity:1"
         transform="translate(0,0.6139484)"><path
           d="m 82.801147,48.305062 c -6.1e-5,-0.0016 -5.16e-4,-0.003 -5.16e-4,-0.0047 v -0.195337 h -0.150895 c -0.04026,0 -0.07235,0.04427 -0.07235,0.09974 0,0.05545 0.03208,0.100252 0.07235,0.100252 z"
           style="fill:#ffffff;fill-opacity:1;stroke:none;stroke-width:0.0322546;stroke-opacity:1"
           id="path27" /><path
           d="m 83.206291,48.105074 v 0.195337 c 0,0.0016 -4.56e-4,0.0031 -5.17e-4,0.0047 h 0.141077 c 0.04026,0 0.07235,-0.0448 0.07235,-0.100252 0,-0.05545 -0.03208,-0.09974 -0.07235,-0.09974 z"
           style="fill:#ffffff;fill-opacity:1;stroke:none;stroke-width:0.0322546;stroke-opacity:1"
           id="path28" /></g><g
         id="g30"
         transform="translate(0,0.5883439)"
         style="fill:#ffffff;fill-opacity:1;stroke:none;stroke-opacity:1"><path
           d="m 82.800631,47.975883 v -0.199987 h -0.289388 c -0.04026,0 -0.07235,0.04479 -0.07235,0.100252 0,0.05545 0.03208,0.09974 0.07235,0.09974 z"
           style="fill:#ffffff;fill-opacity:1;stroke:none;stroke-width:0.0322546;stroke-opacity:1"
           id="path29" /><path
           d="m 83.206291,47.775896 v 0.199987 h 0.279052 c 0.04026,0 0.07286,-0.04427 0.07286,-0.09974 0,-0.05545 -0.03259,-0.100252 -0.07286,-0.100252 z"
           style="fill:#ffffff;fill-opacity:1;stroke:none;stroke-width:0.0322546;stroke-opacity:1"
           id="path30" /></g><path
         d="m 82.998035,45.101155 a 1.1336783,1.1336783 0 0 0 -1.133264,1.133781 1.1336783,1.1336783 0 0 0 0.192753,0.630453 l 0.33848,0.626318 v 0.505912 c 0,0.117175 0.09418,0.211874 0.211357,0.211874 h 0.19327 v -1.032495 c 0,-0.06702 0.0539,-0.120923 0.120923,-0.120923 h 0.163814 c 0.06702,0 0.120923,0.0539 0.120923,0.120923 v 1.032495 h 0.182417 c 0.117174,0 0.211874,-0.09469 0.211874,-0.211874 v -0.505912 l 0.33848,-0.626318 a 1.1336783,1.1336783 0 0 0 0.192754,-0.630453 1.1336783,1.1336783 0 0 0 -1.133781,-1.133781 z m 0.0083,0.706934 a 0.42557696,0.42557696 0 0 1 0.425297,0.425814 0.42557696,0.42557696 0 0 1 -0.425297,0.425297 0.42557696,0.42557696 0 0 1 -0.425814,-0.425297 0.42557696,0.42557696 0 0 1 0.425814,-0.425814 z"
         style="fill:#ffff00;fill-opacity:1;stroke:none;stroke-width:0.0274837;stroke-opacity:1"
         id="path31" /></g></g></svg>
